<?xml version="1.0" standalone="no"?>
<!DOCTYPE svg PUBLIC "-//W3C//DTD SVG 20010904//EN"
 "http://www.w3.org/TR/2001/REC-SVG-20010904/DTD/svg10.dtd">
<svg version="1.0" xmlns="http://www.w3.org/2000/svg"
 width="400.000000pt" height="120.000000pt" viewBox="0 0 400.000000 120.000000"
 preserveAspectRatio="xMidYMid meet">
<metadata>
Created by potrace 1.16, written by Peter Selinger 2001-2019
</metadata>
<g transform="translate(0.000000,120.000000) scale(0.100000,-0.100000)"
fill="#000000" stroke="none">
<path d="M645 1023 c-46 -23 -91 -70 -110 -114 l-18 -39 -107 0 -107 0 -6 -82
c-4 -46 -10 -174 -14 -285 -7 -221 -4 -233 48 -233 22 0 32 -7 44 -30 9 -17
27 -33 42 -36 16 -4 143 9 293 30 151 21 304 36 357 36 68 0 95 4 106 15 8 8
35 19 59 24 44 10 78 40 78 70 0 15 -97 533 -105 557 -2 8 -40 5 -127 -7 -67
-10 -127 -19 -133 -19 -5 0 -20 16 -33 36 -13 19 -44 48 -69 64 -39 25 -57 30
-107 30 -35 -1 -74 -7 -91 -17z m163 -57 c59 -31 100 -92 111 -165 7 -53 27
-54 24 -1 -1 19 0 28 3 20 3 -8 10 -25 16 -37 20 -40 -16 -79 -48 -52 -11 9
-13 22 -9 49 6 35 -18 120 -34 120 -3 0 -49 -7 -101 -15 -52 -8 -119 -15 -148
-15 l-54 0 20 33 c42 67 152 99 220 63z m372 -66 c0 -5 23 -125 50 -266 28
-141 50 -258 50 -260 0 -13 -37 -34 -59 -34 l-28 0 -13 265 -13 265 -111 1
c-126 1 -127 3 -1 23 115 18 125 18 125 6z"/>
<path d="M2474 746 c-41 -18 -64 -52 -64 -96 0 -49 30 -75 115 -103 75 -24 97
-45 76 -71 -14 -16 -77 -22 -97 -8 -6 4 -16 17 -23 30 -9 16 -21 22 -46 22
-30 0 -35 -3 -35 -24 0 -37 45 -84 93 -97 74 -20 163 8 186 58 31 69 -2 125
-87 148 -92 26 -104 33 -100 58 2 18 10 23 45 25 34 2 45 -1 55 -17 9 -15 23
-21 50 -21 44 0 48 14 16 55 -40 51 -120 69 -184 41z"/>
<path d="M3210 744 c-70 -30 -110 -93 -110 -172 0 -124 134 -208 253 -158 103
43 137 183 65 270 -56 68 -137 91 -208 60z m136 -98 c55 -55 43 -125 -27 -162
-88 -45 -180 66 -125 150 36 56 103 61 152 12z"/>
<path d="M1450 715 l0 -35 50 0 50 0 0 -140 0 -140 35 0 35 0 0 140 0 140 50
0 50 0 0 35 0 35 -135 0 -135 0 0 -35z"/>
<path d="M1781 586 c-17 -89 -31 -168 -31 -175 0 -6 16 -11 40 -11 45 0 41 -9
65 134 8 49 16 90 18 92 2 2 11 -24 21 -58 50 -181 43 -168 86 -168 28 0 40 5
44 18 2 9 17 61 32 115 15 53 29 96 31 94 2 -2 10 -44 18 -93 24 -143 20 -134
65 -134 22 0 40 5 40 11 0 6 -14 85 -31 175 l-32 164 -47 0 -47 0 -34 -115
c-19 -63 -36 -115 -39 -115 -3 0 -20 52 -39 115 l-34 115 -47 0 -48 0 -31
-164z"/>
<path d="M2750 575 l0 -175 40 0 40 0 0 70 0 70 60 0 60 0 0 -70 0 -70 40 0
40 0 0 175 0 175 -40 0 -40 0 0 -70 0 -70 -60 0 -60 0 0 70 0 70 -40 0 -40 0
0 -175z"/>
<path d="M3520 575 l0 -175 40 0 40 0 0 65 0 65 51 0 c43 0 55 5 80 29 25 25
29 37 29 81 0 44 -4 56 -29 81 -28 28 -33 29 -120 29 l-91 0 0 -175z"/>
</g>
</svg>
